<svg xmlns="http://www.w3.org/2000/svg" xmlns:xlink="http://www.w3.org/1999/xlink" viewBox="0 0 57 57"><defs><style>.cls-1{stroke:#231f20;stroke-width:0.25px;fill:url(#radial-gradient);}.cls-1,.cls-2,.cls-4,.cls-5,.cls-6{stroke-miterlimit:10;}.cls-2,.cls-3{fill:#010101;}.cls-2,.cls-4,.cls-5{stroke:#fff;}.cls-4,.cls-5,.cls-6{fill:none;}.cls-5{stroke-dasharray:6.14 6.14;}.cls-6{stroke:#010101;stroke-width:2px;}</style><radialGradient id="radial-gradient" cx="2.39" cy="7.19" r="98.63" gradientUnits="userSpaceOnUse"><stop offset="0" stop-color="#45a29e"/><stop offset="0.02" stop-color="#4da8a5"/><stop offset="0.08" stop-color="#68babb"/><stop offset="0.14" stop-color="#7bc8cb"/><stop offset="0.21" stop-color="#86cfd5"/><stop offset="0.28" stop-color="#8ad2d8"/><stop offset="0.67" stop-color="#c5c6c7"/><stop offset="0.91" stop-color="#1f2833"/><stop offset="0.98" stop-color="#0e0e11"/></radialGradient></defs><title>app-iconArtboard 1</title><g id="background-appicom"><rect class="cls-1" width="57" height="57" rx="10"/><circle class="cls-2" cx="15.26" cy="30.74" r="1.14"/></g><g id="film-wheel"><rect class="cls-3" x="17.88" y="40.77" width="30.42" height="1.77"/><polyline class="cls-4" points="42.3 40.77 48.3 40.77 48.3 42.54 42.3 42.54"/><line class="cls-5" x1="36.16" y1="42.54" x2="26.95" y2="42.54"/><polyline class="cls-4" points="23.88 42.54 17.88 42.54 17.88 40.77 23.88 40.77"/><line class="cls-5" x1="30.02" y1="40.77" x2="39.24" y2="40.77"/><circle class="cls-6" cx="15.27" cy="30.37" r="11.43"/><circle class="cls-2" cx="15.26" cy="22.36" r="2.29"/><circle class="cls-2" cx="9.21" cy="34.53" r="2.29"/><circle class="cls-2" cx="21.21" cy="34.53" r="2.29"/><circle class="cls-2" cx="21.21" cy="26.82" r="2.29"/><circle class="cls-2" cx="15.3" cy="38.35" r="2.29"/><circle class="cls-2" cx="9.21" cy="26.82" r="2.29"/></g><g id="film_wheel_cross" data-name="film wheel cross"><circle class="cls-2" cx="38.06" cy="23.31" r="1.14"/><rect class="cls-3" x="48.09" y="25.93" width="1.77" height="30.42"/><polyline class="cls-4" points="48.09 50.35 48.09 56.35 49.86 56.35 49.86 50.35"/><line class="cls-5" x1="49.86" y1="44.21" x2="49.86" y2="35"/><polyline class="cls-4" points="49.86 31.93 49.86 25.93 48.09 25.93 48.09 31.93"/><line class="cls-5" x1="48.09" y1="38.07" x2="48.09" y2="47.28"/><circle class="cls-6" cx="37.69" cy="23.31" r="11.43"/><circle class="cls-2" cx="29.68" cy="23.31" r="2.29"/><circle class="cls-2" cx="41.85" cy="17.26" r="2.29"/><circle class="cls-2" cx="41.85" cy="29.25" r="2.29"/><circle class="cls-2" cx="34.14" cy="29.25" r="2.29"/><circle class="cls-2" cx="45.67" cy="23.35" r="2.29"/><circle class="cls-2" cx="34.14" cy="17.26" r="2.29"/></g></svg>